<?xml version="1.0" encoding="utf-8"?>
<!-- Generator: Adobe Illustrator 26.0.1, SVG Export Plug-In . SVG Version: 6.00 Build 0)  -->
<svg version="1.1" id="Layer_1" xmlns="http://www.w3.org/2000/svg" xmlns:xlink="http://www.w3.org/1999/xlink" x="0px" y="0px"
	 viewBox="0 0 47.6 50.7" style="enable-background:new 0 0 47.6 50.7;" xml:space="preserve">
<style type="text/css">
	.st0{fill:#FFFFFF;}
</style>
<g id="pp-logo-sm_1" transform="translate(-1.342 51.863)">
	<path id="Path_1" class="st0" d="M12.6-46.9c-6.8,4-9.1,5.9-10.2,8.5C0.8-34.6,1.3-22.8,2-16.5C2.8-13.1,6.1-9.1,8.3-9
		C8.7-9,9-14.1,9-20.4c0-10.1,0.2-11.7,2.3-14.7C13.7-38.8,21-43,25-43s11.3,4.2,13.7,7.9c3.2,4.7,3.2,12.5,0,17.2
		c-3.2,4.9-10.1,8.2-15.4,7.5L19-11v4.5c0,4.2,0.1,4.4,3.4,5c4.5,0.9,6.5,0.2,16-5.4S49-14.5,48.9-26.2c0-12.9-0.9-14.3-11.4-20.5
		C26-53.5,24.2-53.6,12.6-46.9z"/>
	<path id="Path_2" class="st0" d="M21.4-31.5c-1.6,1.2-2.5,3.3-2.2,5.3c0.7,6.8,10.6,7,11.6,0.3C31.4-31.9,25.6-34,21.4-31.5z"/>
</g>
</svg>
